<svg width="311" height="99" viewBox="0 0 311 99" fill="none" xmlns="http://www.w3.org/2000/svg">
<path d="M76.896 90.5501C74.72 93.2381 72.064 95.2861 68.928 96.6941C65.856 98.1021 62.464 98.8061 58.752 98.8061C53.76 98.8061 49.248 97.7181 45.216 95.5421C41.184 93.4301 36.576 89.6541 31.392 84.2141C25.312 83.4461 19.872 81.4941 15.072 78.3581C10.336 75.2221 6.624 71.1901 3.936 66.2621C1.312 61.2701 0 55.7661 0 49.7501C0 43.1581 1.568 37.2381 4.704 31.9901C7.904 26.6781 12.288 22.5181 17.856 19.5101C23.488 16.5021 29.792 14.9981 36.768 14.9981C43.744 14.9981 50.016 16.5021 55.584 19.5101C61.152 22.5181 65.536 26.6781 68.736 31.9901C71.936 37.2381 73.536 43.1581 73.536 49.7501C73.536 57.5581 71.328 64.4061 66.912 70.2941C62.56 76.1821 56.768 80.2781 49.536 82.5821C51.136 84.2461 52.672 85.4301 54.144 86.1341C55.68 86.9021 57.312 87.2861 59.04 87.2861C63.2 87.2861 66.848 85.6221 69.984 82.2941L76.896 90.5501ZM15.744 49.7501C15.744 53.9101 16.64 57.6221 18.432 60.8861C20.288 64.1501 22.816 66.7101 26.016 68.5661C29.216 70.3581 32.8 71.2541 36.768 71.2541C40.736 71.2541 44.32 70.3581 47.52 68.5661C50.72 66.7101 53.216 64.1501 55.008 60.8861C56.864 57.6221 57.792 53.9101 57.792 49.7501C57.792 45.5901 56.864 41.8781 55.008 38.6141C53.216 35.3501 50.72 32.8221 47.52 31.0301C44.32 29.1741 40.736 28.2461 36.768 28.2461C32.8 28.2461 29.216 29.1741 26.016 31.0301C22.816 32.8221 20.288 35.3501 18.432 38.6141C16.64 41.8781 15.744 45.5901 15.744 49.7501Z" fill="black"/>
<path d="M136.2 31.7021V83.3501H121.992V77.2061C120.008 79.4461 117.64 81.1741 114.888 82.3901C112.136 83.5421 109.16 84.1181 105.96 84.1181C99.176 84.1181 93.8 82.1661 89.832 78.2621C85.864 74.3581 83.88 68.5661 83.88 60.8861V31.7021H98.856V58.6781C98.856 66.9981 102.344 71.1581 109.32 71.1581C112.904 71.1581 115.784 70.0061 117.96 67.7021C120.136 65.3341 121.224 61.8461 121.224 57.2381V31.7021H136.2Z" fill="black"/>
<path d="M210.574 80.8541C209.102 81.9421 207.278 82.7741 205.102 83.3501C202.99 83.8621 200.75 84.1181 198.382 84.1181C192.238 84.1181 187.47 82.5501 184.078 79.4141C180.75 76.2781 179.086 71.6701 179.086 65.5901V44.3741H171.118V32.8541H179.086V20.2781H194.062V32.8541H206.926V44.3741H194.062V65.3981C194.062 67.5741 194.606 69.2701 195.694 70.4861C196.846 71.6381 198.446 72.2141 200.494 72.2141C202.862 72.2141 204.878 71.5741 206.542 70.2941L210.574 80.8541Z" fill="black"/>
<path d="M251.167 80.8541C249.695 81.9421 247.871 82.7741 245.695 83.3501C243.583 83.8621 241.344 84.1181 238.976 84.1181C232.832 84.1181 228.063 82.5501 224.671 79.4141C221.343 76.2781 219.68 71.6701 219.68 65.5901V44.3741H211.712V32.8541H219.68V20.2781H234.656V32.8541H247.52V44.3741H234.656V65.3981C234.656 67.5741 235.2 69.2701 236.288 70.4861C237.44 71.6381 239.039 72.2141 241.087 72.2141C243.455 72.2141 245.471 71.5741 247.135 70.2941L251.167 80.8541Z" fill="black"/>
<path d="M282.556 84.1181C277.116 84.1181 272.22 82.9981 267.868 80.7581C263.58 78.4541 260.221 75.2861 257.789 71.2541C255.357 67.2221 254.141 62.6461 254.141 57.5261C254.141 52.4061 255.357 47.8301 257.789 43.7981C260.221 39.7661 263.58 36.6301 267.868 34.3901C272.22 32.0861 277.116 30.9341 282.556 30.9341C287.996 30.9341 292.86 32.0861 297.148 34.3901C301.437 36.6301 304.797 39.7661 307.229 43.7981C309.661 47.8301 310.876 52.4061 310.876 57.5261C310.876 62.6461 309.661 67.2221 307.229 71.2541C304.797 75.2861 301.437 78.4541 297.148 80.7581C292.86 82.9981 287.996 84.1181 282.556 84.1181ZM282.556 71.8301C286.396 71.8301 289.533 70.5501 291.965 67.9901C294.461 65.3661 295.708 61.8781 295.708 57.5261C295.708 53.1741 294.461 49.7181 291.965 47.1581C289.533 44.5341 286.396 43.2221 282.556 43.2221C278.716 43.2221 275.548 44.5341 273.052 47.1581C270.556 49.7181 269.309 53.1741 269.309 57.5261C269.309 61.8781 270.556 65.3661 273.052 67.9901C275.548 70.5501 278.716 71.8301 282.556 71.8301Z" fill="black"/>
<path d="M147.256 45.3501H163.256V83.3501H147.256V45.3501Z" fill="black"/>
<path d="M147.256 38.3501H163.256V42.3501H147.256V38.3501Z" fill="black"/>
<path d="M147.256 31.3501H163.256V35.3501H147.256V31.3501Z" fill="black"/>
<path d="M154.373 23.2838L154.046 24.7526L156.778 22.2026C159.572 19.5951 160.205 15.4085 158.308 12.0911C156.97 9.75033 156.861 6.90268 158.018 4.46711L159.546 1.25263L158.693 1.75236C156.242 3.18861 154.416 5.48859 153.573 8.20133C152.841 10.5555 152.893 13.0835 153.72 15.4059L153.924 15.9764C154.759 18.3212 154.915 20.8543 154.373 23.2838Z" fill="black"/>
<path fill-rule="evenodd" clip-rule="evenodd" d="M160.694 0L158.47 4.68166C157.383 6.9694 157.485 9.6442 158.742 11.8429C160.754 15.3617 160.082 19.8023 157.119 22.5681L153.206 26.22L153.885 23.1751C154.406 20.8375 154.256 18.4002 153.453 16.1441L153.249 15.5736C152.386 13.1494 152.332 10.5105 153.095 8.05295C153.975 5.22117 155.882 2.82025 158.44 1.32097L160.694 0ZM158.381 2.53796C156.322 3.92025 154.79 5.96869 154.05 8.34971C153.351 10.6006 153.4 13.0177 154.191 15.2381L154.395 15.8086C155.249 18.2078 155.418 20.797 154.884 23.2858L156.437 21.837C159.061 19.3878 159.656 15.4554 157.874 12.3393C156.454 9.85646 156.34 6.83597 157.567 4.25256L158.381 2.53796Z" fill="black"/>
</svg>
